<svg xmlns="http://www.w3.org/2000/svg" width="137" height="34" viewBox="0 0 137 34" fill="none">
	<g clip-path="url(#clip0_422_39)">
		<path d="M24.5601 10.0835C25.3368 10.9298 25.8643 11.9805 26.0402 13.1187C26.216 14.2569 26.0548 15.4097 25.5712 16.4603C25.0877 17.5109 24.311 18.3865 23.3292 18.9848C22.3474 19.583 21.2044 19.8895 20.0467 19.8457C18.889 19.8019 17.7753 19.4225 16.8521 18.7513C15.9143 18.08 15.2109 17.1461 14.8006 16.0663C14.4049 14.9865 14.3316 13.8191 14.5954 12.6955C14.8592 11.5719 15.46 10.565 16.2953 9.77704C17.4383 8.72639 18.9476 8.17189 20.4863 8.23026C22.025 8.28863 23.505 8.94528 24.5601 10.0835Z" fill="#F6DD6E">
		</path>
		<path d="M17.3063 26.4412V34C13.13 33.4017 9.2027 31.5047 6.14002 28.5425C2.35929 24.8944 0.161194 19.933 0 14.709V0H7.45887V14.6798C7.63472 17.9339 9.0415 20.9983 11.4154 23.2601C13.0713 24.8361 15.1082 25.9159 17.3063 26.4412Z" fill="#5C469C">
		</path>
		<path d="M23.168 34C27.3444 33.3871 31.2423 31.4901 34.305 28.5425C38.0711 24.909 40.2838 19.9477 40.445 14.7236L40.5183 6.37684L33.0447 6.34766L32.9861 14.709C32.8103 17.9631 31.4035 21.0275 29.0296 23.2893C27.3737 24.8507 25.3514 25.9451 23.168 26.4558V34Z" fill="#5C469C">
		</path>
	</g>
	<defs>
		<clipPath id="clip0_422_39">
			<rect width="137" height="34" fill="white">
			</rect>
		</clipPath>
	</defs>
</svg>
