<?xml version="1.0" encoding="UTF-8"?> <svg xmlns="http://www.w3.org/2000/svg" width="137" height="34" viewBox="0 0 137 34" fill="none"> <g clip-path="url(#clip0_422_39)"> <path d="M63.4371 28.0906V26.3249C63.3052 26.4855 63.1 26.6897 62.8363 26.9232C62.5871 27.1567 62.0156 27.4777 61.1511 27.8571C60.2865 28.2511 59.3779 28.4408 58.4254 28.4408C56.4178 28.4408 54.7912 27.7696 53.531 26.4271C52.2707 25.0846 51.6406 23.3043 51.6406 21.0863V10.6528H56.4618V20.6194C56.4618 21.597 56.7842 22.3996 57.4289 23.0271C58.0737 23.6691 58.8943 23.9756 59.8615 23.9756C60.9605 23.9756 61.8251 23.6254 62.4699 22.9103C63.1147 22.2099 63.4371 21.203 63.4371 19.8897V10.6528H68.2582V28.0906H63.4371Z" fill="#333333"></path> <path d="M85.2129 12.9872L82.7217 15.8181C82.6484 15.7306 82.5312 15.5992 82.3847 15.4387C82.2235 15.2782 81.9011 15.0593 81.4029 14.8113C80.9046 14.5486 80.3917 14.4173 79.8642 14.4173C79.2048 14.4173 78.6772 14.5632 78.2962 14.8404C77.9152 15.1177 77.7247 15.4533 77.7247 15.8181C77.7247 16.2705 78.0031 16.6499 78.5453 16.9417C79.0875 17.2336 79.7616 17.5108 80.5383 17.7443C81.3296 17.9778 82.1209 18.2696 82.9122 18.5907C83.7182 18.9263 84.3923 19.4516 84.9345 20.1958C85.4767 20.9254 85.7551 21.8447 85.7551 22.9392C85.7551 24.5005 85.1396 25.8138 83.894 26.8645C82.6484 27.9151 80.9486 28.4404 78.7945 28.4404C77.8713 28.4404 76.9774 28.3237 76.1421 28.1048C75.3068 27.8859 74.6181 27.6233 74.1052 27.3022C73.5776 26.9958 73.1234 26.6748 72.7277 26.3683C72.3321 26.0619 72.0536 25.7992 71.8778 25.595L71.6287 25.2301L74.3103 22.5743C74.3983 22.7203 74.5595 22.8954 74.75 23.0997C74.9551 23.3186 75.3801 23.5958 76.0249 23.9752C76.6696 24.34 77.3437 24.5151 78.0471 24.5151C78.8091 24.5151 79.3953 24.3692 79.7763 24.0774C80.1719 23.7855 80.3624 23.3915 80.3624 22.9246C80.3624 22.443 80.084 22.049 79.5418 21.728C78.9996 21.407 78.3255 21.1297 77.5196 20.8962C76.7136 20.6628 75.9223 20.3709 75.1456 20.0353C74.3543 19.6997 73.6949 19.1743 73.1527 18.4739C72.6105 17.7735 72.3321 16.8688 72.3321 15.8035C72.3321 14.4027 72.9915 13.1331 74.2957 11.995C75.5999 10.8568 77.2265 10.3022 79.1315 10.3022C80.3478 10.3022 81.4615 10.5211 82.4726 10.9735C83.4837 11.4259 84.2018 11.8636 84.5974 12.2868L85.2129 12.9872Z" fill="#333333"></path> <path d="M91.4554 8.71182V5.51611H95.7491V11.0174H99.31V15.2929H95.7491V22.2243C95.7491 22.7642 95.9542 23.2311 96.3499 23.6105C96.7455 23.9899 97.2584 24.1796 97.8739 24.1796C98.1816 24.1796 98.4894 24.1504 98.7971 24.0775C99.0902 24.0191 99.31 23.9462 99.4712 23.8732L99.6763 23.8002V27.9007C98.7238 28.2655 97.6541 28.4406 96.4525 28.426C92.7597 28.426 90.9279 26.4122 90.9279 22.3848V15.2783H87.8945V11.0174H89.5065C90.0487 11.0174 90.5176 10.7985 90.8986 10.3753C91.2649 9.95216 91.4554 9.39766 91.4554 8.71182Z" fill="#333333"></path> <path d="M113.422 28.0902V26.3246C113.275 26.4851 113.085 26.6894 112.836 26.9228C112.587 27.1563 112.044 27.4774 111.209 27.8568C110.374 28.2507 109.495 28.4404 108.586 28.4404C106.842 28.4404 105.421 27.9589 104.322 26.9958C103.223 26.0327 102.68 24.8507 102.68 23.4791C102.68 22.049 103.135 20.8671 104.058 19.9186C104.981 18.9701 106.241 18.3426 107.868 18.0653L113.422 17.0731C113.422 16.3434 113.158 15.7452 112.616 15.2782C112.088 14.8113 111.341 14.5778 110.388 14.5778C109.597 14.5778 108.879 14.7237 108.22 15.0156C107.575 15.3074 107.106 15.6138 106.842 15.9349L106.446 16.358L103.779 13.7022C103.853 13.6147 103.941 13.4834 104.073 13.3228C104.19 13.1623 104.468 12.8997 104.893 12.5203C105.318 12.1409 105.787 11.8053 106.285 11.4988C106.784 11.207 107.443 10.9297 108.264 10.6816C109.084 10.4336 109.905 10.3022 110.755 10.3022C112.968 10.3022 114.77 10.9589 116.162 12.2722C117.554 13.5855 118.258 15.2344 118.258 17.2336V28.0902H113.422ZM109.846 24.5297C110.945 24.5297 111.81 24.1795 112.455 23.4937C113.099 22.8078 113.422 21.8447 113.422 20.619V20.0791L109.495 20.7941C108.176 20.9984 107.516 21.655 107.516 22.7641C107.531 23.946 108.293 24.5297 109.846 24.5297Z" fill="#333333"></path> <path d="M136.634 10.6528V14.9284L128.061 23.8297H137V28.1052H121.994V23.8297L130.567 14.9284H122.346V10.6528H136.634Z" fill="#333333"></path> <path d="M24.5601 10.0835C25.3368 10.9298 25.8643 11.9805 26.0402 13.1187C26.216 14.2569 26.0548 15.4097 25.5712 16.4603C25.0877 17.5109 24.311 18.3865 23.3292 18.9848C22.3474 19.583 21.2044 19.8895 20.0467 19.8457C18.889 19.8019 17.7753 19.4225 16.8521 18.7513C15.9143 18.08 15.2109 17.1461 14.8006 16.0663C14.4049 14.9865 14.3316 13.8191 14.5954 12.6955C14.8592 11.5719 15.46 10.565 16.2953 9.77704C17.4383 8.72639 18.9476 8.17189 20.4863 8.23026C22.025 8.28863 23.505 8.94528 24.5601 10.0835Z" fill="#F6DD6E"></path> <path d="M17.3063 26.4412V34C13.13 33.4017 9.2027 31.5047 6.14002 28.5425C2.35929 24.8944 0.161194 19.933 0 14.709V0H7.45887V14.6798C7.63472 17.9339 9.0415 20.9983 11.4154 23.2601C13.0713 24.8361 15.1082 25.9159 17.3063 26.4412Z" fill="#5C469C"></path> <path d="M23.168 34C27.3444 33.3871 31.2423 31.4901 34.305 28.5425C38.0711 24.909 40.2838 19.9477 40.445 14.7236L40.5183 6.37684L33.0447 6.34766L32.9861 14.709C32.8103 17.9631 31.4035 21.0275 29.0296 23.2893C27.3737 24.8507 25.3514 25.9451 23.168 26.4558V34Z" fill="#5C469C"></path> </g> <defs> <clipPath id="clip0_422_39"> <rect width="137" height="34" fill="white"></rect> </clipPath> </defs> </svg> 