<svg id="Layer_1" data-name="Layer 1" xmlns="http://www.w3.org/2000/svg" viewBox="0 0 577.17 477.89"><defs><style>.cls-1{fill:#f39200;}</style></defs><title>logo</title><path class="cls-1" d="M705.54,227.62a71,71,0,0,0-95.43-31l-56.54,28.81c-69.27-44.78-159.87-52.63-238.5-12.57-110.69,56.38-158.64,187.75-113.67,301l-26.48,13.49A71,71,0,0,0,185.19,658a71.27,71.27,0,0,0,22,3.5,70.2,70.2,0,0,0,32.13-7.76l54.09-27.55a239.25,239.25,0,0,0,130.51,38.52,236,236,0,0,0,108.09-26C642.7,582.35,690.65,451,645.68,337.74l28.84-14.69a70.95,70.95,0,0,0,31-95.43ZM255.28,595.45,219,613.92a26.23,26.23,0,1,1-23.8-46.74l26.55-13.53A239.27,239.27,0,0,0,255.28,595.45Zm68.83-253.18a71,71,0,1,0,64.41,126.45l90.35-46a26.23,26.23,0,1,1,23.8,46.74l-205,104.4A193.54,193.54,0,0,1,250.44,514c-48.61-95.45-10.51-212.65,84.94-261.26a191.73,191.73,0,0,1,87.84-21.14,195.11,195.11,0,0,1,82.48,18.24ZM523,509.29a71,71,0,0,0-64.41-126.44l-90.34,46a26.23,26.23,0,1,1-23.81-46.74L549.33,277.75a194.25,194.25,0,0,1,47.31,59.87c48.61,95.44,10.51,212.65-84.93,261.27a192.94,192.94,0,0,1-148.19,11.55,196.42,196.42,0,0,1-22-8.71Zm68.82-253.17,38.63-19.67a26.23,26.23,0,0,1,23.8,46.75l-28.84,14.68A237.62,237.62,0,0,0,591.79,256.12Z" transform="translate(-136.13 -186.85)"/></svg>