<?xml version="1.0" encoding="UTF-8"?>
<svg id="Layer_1" data-name="Layer 1" xmlns="http://www.w3.org/2000/svg" viewBox="0 0 213 198.5">
  <defs>
    <style>
      .cls-1 {
        fill: #6fdf9f;
      }

      .cls-1, .cls-2 {
        stroke-width: 0px;
      }

      .cls-2 {
        fill: #102e7b;
      }
    </style>
  </defs>
  <path class="cls-1" d="M47,84.61s61.26,30.95,61.73,30.82c7.09-2.04,63.39-20.07,63.45-19.82,1.19,4.97,1.82,10.17,1.82,15.5,0,36.73-29.77,66.5-66.5,66.5s-66.5-29.77-66.5-66.5c0-9.27,1.9-18.1,5.32-26.12"/>
  <path class="cls-2" d="M109.08,21.65c2.62.9,5.39,1.52,7.85,2.76,24.5,12.37,48.95,24.85,73.42,37.29,3.39,1.72,7.19,3.92,6.02,8.05-.8,2.84-3.66,5.87-6.39,7.29-24.53,12.69-49.24,25.01-73.88,37.49-5.15,2.61-10.13,2.55-15.28-.06-24.62-12.48-49.27-24.89-73.91-37.33-.59-.3-1.2-.59-1.77-.93-6.45-3.81-6.59-10.18-.02-13.56,25.29-13.04,50.65-25.94,76.04-38.76,2.3-1.16,5.03-1.44,7.9-2.23Z"/>
</svg>